#tb 0: 1/1000
0,          0,          0,        0,     1584, fa2f292d273c37dc2804a70d1cae1e9d
0,         33,         33,        0,     1584, ba75d90652c021bc7ca061352e6e94ce
0,         66,         66,        0,     1584, e65d9a205bd17d100e50c7b6a7ea772d
0,        100,        100,        0,     1584, 46f9e9ff891576b9462f21d48b7b9e2b
0,        133,        133,        0,     1584, d23cedacf3a37cf6b2774e0b18b6b9d7
0,        166,        166,        0,     1584, 84329f7716a6db5a7e64a68a1155bfc6
0,        200,        200,        0,     1584, ad62286b0e13f4e54df4445cdd4fd4e3
0,        233,        233,        0,     1584, 4511529eb24b21eb63e280070f888642
0,        266,        266,        0,     1584, 4e1c122df1785e0e9134c43c85082e05
0,        300,        300,        0,     1584, ac3a3747a00be3f9f58155648fcf9b24
